<svg id="Layer_1" data-name="Layer 1" xmlns="http://www.w3.org/2000/svg" viewBox="0 0 48.37 62.14"><defs><style>.cls-1{fill:#fff;}.cls-2{fill:#1e2b3c;}</style></defs><rect class="cls-1" x="1.42" y="2.08" width="34.06" height="59.32" rx="2.97"/><g id="Ikoner"><g id="ID-porten"><rect class="cls-2" x="14.96" y="7.06" width="9.71" height="3"/><path class="cls-2" d="M42.09,25.49a12.82,12.82,0,0,0-3.62-1.91,14,14,0,0,0-3-.67c-.22,0-.44-.06-.67-.07a13.54,13.54,0,0,0-5.36.67,12.59,12.59,0,0,0-7.54,6.65,12.79,12.79,0,0,0-1.16,6.73,18.86,18.86,0,0,0,1,4.57A2.07,2.07,0,0,0,22,42a.89.89,0,0,0,.75.38,1,1,0,0,0,.9-.38,1.1,1.1,0,0,0,.21-.93,2.42,2.42,0,0,0-.1-.36l-.07-.19a.68.68,0,0,0-.07-.2,17.58,17.58,0,0,1-.76-3.51A11.66,11.66,0,0,1,23,33.4a9.88,9.88,0,0,1,4.6-6.62A12.25,12.25,0,0,1,34.24,25H35l.44.05a10.06,10.06,0,0,1,3,.78c.21.09.43.18.64.29a10.7,10.7,0,0,1,5.72,7.61,5.57,5.57,0,0,1,.2,2,2.72,2.72,0,0,1-.75,1.59A3,3,0,0,1,41,38a2.74,2.74,0,0,1-1.8-2,5.61,5.61,0,0,1-.17-.91v-.2a5.34,5.34,0,0,0-.55-1.78,4.71,4.71,0,0,0-1.1-1.37,5.31,5.31,0,0,0-1.9-1.06,5.56,5.56,0,0,0-2.22-.18,5,5,0,0,0-3.53,2,5.09,5.09,0,0,0-.95,3.36,12.27,12.27,0,0,0,.5,2.82A11.42,11.42,0,0,0,33,44.56a13,13,0,0,0,2.44,1.56v11a2,2,0,0,1-2,2H5a2,2,0,0,1-2-2V5A2,2,0,0,1,5,3H33.47a2,2,0,0,1,2,2V15.27c-.47,0-.93-.06-1.4-.06h0a16.57,16.57,0,0,0-2.44.15A21.6,21.6,0,0,0,27,16.42a17.23,17.23,0,0,0-2.39,1,2.62,2.62,0,0,0-.6.45A1,1,0,0,0,23.9,19a.9.9,0,0,0,1,.56,2.57,2.57,0,0,0,.65-.2l.71-.32c.31-.14.61-.28.93-.41a17.79,17.79,0,0,1,6.1-1.36,16,16,0,0,1,2.19.07,18,18,0,0,1,3,.53c.38.11.76.21,1.13.33a21.13,21.13,0,0,1,2.65,1.1,3.61,3.61,0,0,0,.62.24A1,1,0,0,0,44,19.1a1,1,0,0,0-.17-1.27,3.4,3.4,0,0,0-.59-.4,20.84,20.84,0,0,0-4.78-1.72V5a5,5,0,0,0-5-5H5A5,5,0,0,0,0,5V57.14a5,5,0,0,0,5,5H33.47a5,5,0,0,0,5-5V47.21h.09a1,1,0,0,0,.6-1.81,4.17,4.17,0,0,0-.66-.35h0c-.16-.07-.32-.12-.49-.18l-.32-.11a10.56,10.56,0,0,1-2.19-1.13,10,10,0,0,1-4.5-6.9,5.2,5.2,0,0,1,0-1.67,2.7,2.7,0,0,1,1.86-2.21,3.34,3.34,0,0,1,1.88-.09,2.56,2.56,0,0,1,.75.3,2.53,2.53,0,0,1,1,1,4.14,4.14,0,0,1,.38,1.14l.06.4a3.28,3.28,0,0,0,.14.76,5.1,5.1,0,0,0,1.45,2.56,4.9,4.9,0,0,0,1.14.83,5.15,5.15,0,0,0,3.77.41A5,5,0,0,0,47.2,35.4a10.21,10.21,0,0,0-.2-2.14A12.33,12.33,0,0,0,42.09,25.49Z"/><path class="cls-2" d="M27,34.56a6.27,6.27,0,0,1,2-3.84,7,7,0,0,1,6.25-1.82l.21.05a6.82,6.82,0,0,1,3,1.38,7.57,7.57,0,0,1,1.74,2.08,4.86,4.86,0,0,1,.71,2.49v.31a1.12,1.12,0,0,0,.5.78,1.05,1.05,0,0,0,1.08.09,1,1,0,0,0,.59-.89,3.22,3.22,0,0,0,0-.76,8.57,8.57,0,0,0-2.53-5.1,10.25,10.25,0,0,0-2.11-1.59,8.44,8.44,0,0,0-3-1,9.81,9.81,0,0,0-3.06,0,9.3,9.3,0,0,0-5.24,2.7A8.67,8.67,0,0,0,24.72,35a10.07,10.07,0,0,0,.15,2.57A17.9,17.9,0,0,0,26,41.42a14.71,14.71,0,0,0,3.43,4.86,1.49,1.49,0,0,0,1.11.45h.13a1,1,0,0,0,.78-.46.94.94,0,0,0,0-.89,2.41,2.41,0,0,0-.41-.54,17.22,17.22,0,0,1-1.38-1.57A12.63,12.63,0,0,1,26.9,36v-.44A3.54,3.54,0,0,0,27,34.56Z"/><path class="cls-2" d="M48.19,26.19a5.27,5.27,0,0,0-.43-.62,16.25,16.25,0,0,0-4-3.67,17.93,17.93,0,0,0-8.32-2.83A8.16,8.16,0,0,0,34.13,19h0a18.67,18.67,0,0,0-3.94.39,17.16,17.16,0,0,0-10,6.1,5.39,5.39,0,0,0-.43.63,1.32,1.32,0,0,0-.16.89.91.91,0,0,0,.93.81h.12a1.18,1.18,0,0,0,.66-.28c.14-.14.28-.28.41-.43s.34-.37.5-.56c.32-.37.65-.75,1-1.09a15.47,15.47,0,0,1,12.24-4.22,6.28,6.28,0,0,1,1,.13,14.53,14.53,0,0,1,2,.46,14.94,14.94,0,0,1,4.38,2.08,13.81,13.81,0,0,1,3.46,3.36,1.22,1.22,0,0,0,1.06.51h0a.91.91,0,0,0,.92-.66A1,1,0,0,0,48.19,26.19Z"/><path class="cls-2" d="M43.22,41.73a2.29,2.29,0,0,0-.64,0,6.74,6.74,0,0,1-2.37-.06,6.28,6.28,0,0,1-1.74-.59,5.61,5.61,0,0,1-1.63-1.19,6.38,6.38,0,0,1-1.37-2.18A8.09,8.09,0,0,1,35,35.83a5.79,5.79,0,0,0-.16-.83.88.88,0,0,0-.73-.64,1.08,1.08,0,0,0-.87.17,1.24,1.24,0,0,0-.43,1v.26a4.09,4.09,0,0,0,0,.7,8.08,8.08,0,0,0,2.61,5l.09.09a9,9,0,0,0,2.91,1.74,10,10,0,0,0,3.47.59h.7a5.83,5.83,0,0,0,.73-.1,1.08,1.08,0,0,0,.82-1.29,1.1,1.1,0,0,0-1-.84Z"/></g></g></svg>